<svg width="24" height="24" viewBox="0 0 24 24" fill="none" xmlns="http://www.w3.org/2000/svg">
<path d="M15 16.5C15 17.3284 15.6716 18 16.5 18C17.3284 18 18 17.3284 18 16.5C18 15.6716 17.3284 15 16.5 15C15.6716 15 15 15.6716 15 16.5Z" stroke="#191A19" stroke-width="3" stroke-linecap="round" stroke-linejoin="round"/>
<path d="M6 16.5C6 17.3284 6.67157 18 7.5 18C8.32843 18 9 17.3284 9 16.5C9 15.6716 8.32843 15 7.5 15C6.67157 15 6 15.6716 6 16.5Z" stroke="#191A19" stroke-width="3" stroke-linecap="round" stroke-linejoin="round"/>
<path d="M15 7.5C15 8.32843 15.6716 9 16.5 9C17.3284 9 18 8.32843 18 7.5C18 6.67157 17.3284 6 16.5 6C15.6716 6 15 6.67157 15 7.5Z" stroke="#191A19" stroke-width="3" stroke-linecap="round" stroke-linejoin="round"/>
<path d="M6 7.5C6 8.32843 6.67157 9 7.5 9C8.32843 9 9 8.32843 9 7.5C9 6.67157 8.32843 6 7.5 6C6.67157 6 6 6.67157 6 7.5Z" stroke="#191A19" stroke-width="3" stroke-linecap="round" stroke-linejoin="round"/>
</svg>
